<?xml version="1.0" encoding="UTF-8"?>
<!DOCTYPE svg PUBLIC "-//W3C//DTD SVG 1.1//EN" "http://www.w3.org/Graphics/SVG/1.1/DTD/svg11.dtd">
<!-- Creator: CorelDRAW -->
<svg xmlns="http://www.w3.org/2000/svg" xml:space="preserve" width="6.82666in" height="6.82666in" style="shape-rendering:geometricPrecision; text-rendering:geometricPrecision; image-rendering:optimizeQuality; fill-rule:evenodd; clip-rule:evenodd"
viewBox="0 0 6.82666 6.82666"
 xmlns:xlink="http://www.w3.org/1999/xlink">
 <defs>
  <style type="text/css">
   <![CDATA[
    .fil2 {fill:none}
    .fil4 {fill:#558B2F}
    .fil3 {fill:#689F38}
    .fil1 {fill:#FDD835}
    .fil0 {fill:#FFF176}
    .fil5 {fill:#2E5F1B;fill-rule:nonzero}
   ]]>
  </style>
   <clipPath id="id0">
    <path d="M3.41333 -3.93701e-006c1.88513,0 3.41333,1.5282 3.41333,3.41333 0,1.88513 -1.5282,3.41333 -3.41333,3.41333 -1.88513,0 -3.41333,-1.5282 -3.41333,-3.41333 0,-1.88513 1.5282,-3.41333 3.41333,-3.41333z"/>
   </clipPath>
 </defs>
 <g id="Layer_x0020_1">
  <metadata id="CorelCorpID_0Corel-Layer"/>
  <path class="fil0" d="M3.41333 -3.93701e-006c1.88513,0 3.41333,1.5282 3.41333,3.41333 0,1.88513 -1.5282,3.41333 -3.41333,3.41333 -1.88513,0 -3.41333,-1.5282 -3.41333,-3.41333 0,-1.88513 1.5282,-3.41333 3.41333,-3.41333z"/>
  <g style="clip-path:url(#id0)">
   <g id="_457195688">
    <g>
     <polygon id="_4607694881" class="fil1" points="2.8832,1.97618 6.66947,5.76245 6.66537,5.75819 6.66124,5.75394 6.65709,5.7497 6.65293,5.74547 6.64874,5.74126 6.64452,5.73706 6.64029,5.73286 6.63603,5.72869 6.63175,5.72452 6.62745,5.72037 6.62313,5.71622 6.61878,5.7121 6.61441,5.70798 6.61002,5.70388 6.6056,5.69979 6.60116,5.69571 6.5967,5.69164 6.59222,5.68759 2.80595,1.90132 2.81043,1.90537 2.81489,1.90944 2.81933,1.91352 2.82375,1.91761 2.82814,1.92171 2.83251,1.92583 2.83686,1.92995 2.84118,1.93409 2.84548,1.93825 2.84976,1.94241 2.85402,1.94659 2.85826,1.95078 2.86247,1.95498 2.86666,1.9592 2.87083,1.96343 2.87497,1.96767 2.8791,1.97192 "/>
     <polygon id="_460769560" class="fil1" points="4.47113,2.56082 8.2574,6.34709 8.24289,6.3542 8.22866,6.3617 8.21471,6.36955 8.20103,6.37774 8.18761,6.38623 8.17444,6.395 8.16152,6.40403 8.14883,6.41328 8.13637,6.42274 8.12413,6.43237 8.1121,6.44215 8.10026,6.45206 8.08862,6.46206 8.07715,6.47213 8.06587,6.48224 8.05474,6.49237 8.04377,6.5025 8.03295,6.51259 8.02227,6.52262 8.01171,6.53256 8.00128,6.54239 7.99096,6.55209 7.98074,6.56161 7.97061,6.57094 7.96057,6.58006 7.9506,6.58893 7.94071,6.59754 7.93087,6.60584 7.92108,6.61382 7.91133,6.62145 7.90162,6.62871 7.89193,6.63557 4.10566,2.8493 4.11535,2.84244 4.12507,2.83518 4.13481,2.82755 4.1446,2.81957 4.15444,2.81126 4.16433,2.80266 4.1743,2.79379 4.18434,2.78467 4.19447,2.77534 4.20469,2.76581 4.21501,2.75612 4.22544,2.74629 4.236,2.73635 4.24668,2.72632 4.2575,2.71623 4.26847,2.7061 4.2796,2.69597 4.29089,2.68585 4.30235,2.67578 4.31399,2.66578 4.32583,2.65588 4.33787,2.6461 4.35011,2.63647 4.36257,2.62701 4.37526,2.61776 4.38818,2.60873 4.40134,2.59996 4.41476,2.59146 4.42844,2.58328 4.44239,2.57543 4.45662,2.56793 "/>
     <polygon id="_460770472" class="fil1" points="2.80595,1.90132 6.59222,5.68759 6.58796,5.68356 6.58395,5.67937 2.79769,1.89309 2.80169,1.89729 "/>
     <polygon id="_460770688" class="fil1" points="3.07868,1.85127 6.86494,5.63754 6.89259,5.6685 6.9193,5.69992 6.94507,5.73178 6.96993,5.76409 6.99387,5.79685 7.01694,5.83004 7.03913,5.86368 7.06045,5.89775 7.08094,5.93226 7.10059,5.96719 7.11944,6.00256 7.13748,6.03834 7.15473,6.07455 7.17122,6.11118 7.18694,6.14822 7.20193,6.18567 7.21619,6.22354 7.22974,6.26181 7.24259,6.30049 7.25476,6.33957 7.26626,6.37904 7.27711,6.41891 7.28732,6.45918 7.29691,6.49983 7.30589,6.54087 7.31427,6.5823 7.32207,6.6241 7.32931,6.66629 3.54304,2.88002 3.5358,2.83783 3.528,2.79603 3.51962,2.7546 3.51064,2.71356 3.50106,2.67291 3.49085,2.63264 3.48,2.59277 3.4685,2.5533 3.45633,2.51422 3.44348,2.47554 3.42993,2.43727 3.41567,2.3994 3.40068,2.36194 3.38495,2.32491 3.36846,2.28828 3.35121,2.25207 3.33317,2.21628 3.31433,2.18092 3.29467,2.14598 3.27419,2.11148 3.25286,2.07741 3.23067,2.04377 3.20761,2.01057 3.18366,1.97782 3.1588,1.94551 3.13303,1.91365 3.10633,1.88223 "/>
     <polygon id="_460771024" class="fil1" points="3.35889,3.32607 7.14516,7.11235 7.13991,7.10767 7.13467,7.10299 7.12944,7.0983 7.12423,7.09362 7.11903,7.08894 7.11385,7.08425 7.10867,7.07957 7.10351,7.07488 7.09836,7.0702 7.09322,7.06551 7.08809,7.06083 7.08297,7.05614 7.07786,7.05146 7.07276,7.04678 7.06767,7.0421 7.06259,7.03742 7.05751,7.03275 7.05244,7.02807 7.04738,7.02341 7.04233,7.01874 7.03728,7.01407 7.03224,7.00941 7.0272,7.00476 7.02217,7.00011 7.01714,6.99546 7.01211,6.99081 7.00709,6.98618 7.00208,6.98154 6.99706,6.97692 6.99205,6.9723 6.98704,6.96768 6.98203,6.96307 3.19576,3.1768 3.20077,3.18141 3.20578,3.18602 3.2108,3.19065 3.21581,3.19527 3.22083,3.19991 3.22585,3.20454 3.23087,3.20919 3.2359,3.21383 3.24093,3.21849 3.24597,3.22314 3.25101,3.2278 3.25606,3.23247 3.26111,3.23713 3.26618,3.2418 3.27124,3.24648 3.27632,3.25115 3.2814,3.25583 3.28649,3.26051 3.29159,3.26519 3.2967,3.26987 3.30182,3.27456 3.30695,3.27924 3.31209,3.28393 3.31724,3.28861 3.32241,3.2933 3.32758,3.29798 3.33276,3.30267 3.33796,3.30735 3.34318,3.31203 3.3484,3.31672 3.35364,3.3214 "/>
     <polygon id="_460770664" class="fil1" points="3.19576,3.1768 6.98203,6.96307 6.97894,6.96875 6.97577,6.97438 6.97252,6.97997 6.96919,6.98551 6.96578,6.991 6.96228,6.99643 6.95871,7.00182 6.95507,7.00715 6.95134,7.01243 6.94754,7.01766 6.94365,7.02283 6.93969,7.02794 6.93566,7.03299 6.93154,7.03799 6.92735,7.04293 6.92309,7.0478 3.13682,3.26153 3.14109,3.25665 3.14528,3.25172 3.14939,3.24672 3.15343,3.24167 3.15739,3.23656 3.16127,3.23139 3.16507,3.22616 3.1688,3.22088 3.17244,3.21555 3.17602,3.21016 3.17951,3.20472 3.18292,3.19924 3.18625,3.1937 3.1895,3.18811 3.19267,3.18248 "/>
     <polygon id="_460770592" class="fil1" points="3.13682,3.26153 6.92309,7.0478 6.90814,7.06378 6.89233,7.07902 6.87567,7.09348 6.85817,7.10712 6.83982,7.11989 6.82065,7.13178 6.80065,7.14272 6.77984,7.15268 6.75822,7.16163 6.73581,7.16952 6.71261,7.17632 6.68863,7.18198 6.66387,7.18647 6.63835,7.18975 6.61208,7.19178 6.58506,7.19252 6.55729,7.19193 6.5288,7.18996 6.49958,7.18659 6.46965,7.18178 6.43901,7.17547 6.40767,7.16764 6.37564,7.15825 6.34293,7.14725 6.30954,7.13461 6.27549,7.12028 6.24078,7.10424 6.20542,7.08643 6.16941,7.06682 6.13278,7.04537 6.09552,7.02205 6.05764,6.9968 2.27137,3.21053 2.30925,3.23578 2.34651,3.2591 2.38315,3.28055 2.41915,3.30015 2.45451,3.31796 2.48922,3.33401 2.52327,3.34833 2.55666,3.36098 2.58937,3.37198 2.6214,3.38137 2.65274,3.3892 2.68338,3.3955 2.71331,3.40032 2.74253,3.40369 2.77102,3.40565 2.79879,3.40624 2.82581,3.40551 2.85209,3.40348 2.87761,3.4002 2.90236,3.39571 2.92634,3.39005 2.94954,3.38325 2.97195,3.37536 2.99357,3.36641 3.01438,3.35644 3.03438,3.3455 3.05355,3.33362 3.0719,3.32085 3.08941,3.30721 3.10607,3.29275 3.12187,3.27751 "/>
     <polygon id="_460771168" class="fil1" points="3.10637,2.58838 6.89264,6.37465 6.90854,6.39202 6.92348,6.40982 6.93748,6.42804 6.95053,6.44664 6.96266,6.46559 6.97385,6.48487 6.98413,6.50443 6.99349,6.52426 7.00194,6.54431 7.00949,6.56457 7.01614,6.585 7.02191,6.60556 7.02679,6.62623 7.0308,6.64698 7.03393,6.66778 7.0362,6.6886 7.03762,6.7094 7.03818,6.73016 7.0379,6.75084 7.03678,6.77143 7.03483,6.79187 7.03205,6.81215 7.02845,6.83223 7.02404,6.85209 7.01883,6.87169 7.01281,6.891 7.006,6.90999 3.21974,3.12372 3.22655,3.10472 3.23256,3.08541 3.23778,3.06581 3.24219,3.04596 3.24578,3.02587 3.24856,3.00559 3.25051,2.98515 3.25163,2.96457 3.25191,2.94389 3.25135,2.92313 3.24994,2.90233 3.24766,2.88151 3.24453,2.86071 3.24052,2.83996 3.23564,2.81929 3.22987,2.79872 3.22322,2.7783 3.21567,2.75804 3.20722,2.73798 3.19786,2.71816 3.18758,2.69859 3.17639,2.67932 3.16426,2.66037 3.15121,2.64176 3.13721,2.62355 3.12227,2.60574 "/>
     <polygon id="_460771192" class="fil1" points="2.27137,3.21053 6.05764,6.9968 6.03842,6.98321 6.01916,6.96881 5.99983,6.95368 5.98042,6.93785 5.96091,6.92138 5.94129,6.90433 5.92153,6.88673 5.90162,6.86866 5.88154,6.85015 5.86128,6.83126 5.84081,6.81204 5.82012,6.79255 5.79919,6.77283 5.778,6.75294 5.75654,6.73294 5.73479,6.71286 5.71273,6.69276 5.69035,6.6727 5.66762,6.65274 5.64453,6.63291 5.62106,6.61327 5.5972,6.59387 5.57292,6.57478 5.54821,6.55602 5.52306,6.53767 5.49743,6.51977 5.47133,6.50238 5.44472,6.48554 5.41759,6.46931 5.38993,6.45373 5.36172,6.43887 5.33293,6.42478 1.54667,2.6385 1.57545,2.6526 1.60367,2.66746 1.63133,2.68304 1.65845,2.69927 1.68506,2.71611 1.71116,2.7335 1.73679,2.7514 1.76194,2.76975 1.78665,2.7885 1.81093,2.8076 1.8348,2.827 1.85826,2.84663 1.88135,2.86646 1.90408,2.88643 1.92646,2.90649 1.94852,2.92659 1.97028,2.94667 1.99174,2.96667 2.01292,2.98656 2.03385,3.00628 2.05454,3.02577 2.07501,3.04499 2.09528,3.06388 2.11535,3.08239 2.13526,3.10046 2.15502,3.11806 2.17465,3.13511 2.19415,3.15158 2.21356,3.16741 2.23289,3.18254 2.25215,3.19694 "/>
     <polygon id="_460770544" class="fil1" points="3.32028,4.67437 7.10654,8.46065 7.10294,8.45733 7.09934,8.45401 7.09575,8.45069 7.09216,8.44738 7.08858,8.44407 7.085,8.44076 3.29873,4.65449 3.30231,4.6578 3.30589,4.66111 3.30948,4.66442 3.31307,4.66774 3.31667,4.67106 "/>
     <polygon id="_460770856" class="fil1" points="3.26309,4.62159 7.04935,8.40786 7.04041,8.42352 7.03062,8.43864 7.01998,8.45319 7.0085,8.46712 6.99619,8.48039 6.98306,8.49295 6.96912,8.50477 6.95439,8.5158 6.93885,8.52598 6.92254,8.5353 6.90544,8.5437 6.88759,8.55114 6.86897,8.55757 6.84961,8.56295 6.82951,8.56725 6.80868,8.57041 6.78713,8.57241 6.76486,8.57317 6.74189,8.57269 6.71823,8.57089 6.69388,8.56776 6.66886,8.56323 6.64317,8.55727 6.61681,8.54983 6.58981,8.54089 6.56217,8.53037 6.53389,8.51826 6.505,8.5045 6.47548,8.48906 6.44537,8.47188 6.41465,8.45293 6.38335,8.43217 2.59709,4.64589 2.62839,4.66666 2.6591,4.68561 2.68922,4.70279 2.71873,4.71823 2.74763,4.73199 2.7759,4.7441 2.80354,4.75461 2.83054,4.76356 2.8569,4.771 2.88259,4.77696 2.90761,4.78148 2.93196,4.78462 2.95563,4.78641 2.97859,4.7869 3.00086,4.78613 3.02241,4.78414 3.04324,4.78098 3.06334,4.77668 3.0827,4.7713 3.10132,4.76487 3.11918,4.75743 3.13627,4.74903 3.15258,4.73971 3.16812,4.72952 3.18285,4.7185 3.1968,4.70668 3.20992,4.69412 3.22223,4.68085 3.23371,4.66692 3.24435,4.65237 3.25415,4.63724 "/>
     <polygon id="_460771072" class="fil1" points="3.40813,5.1237 7.19439,8.90997 7.18281,8.90874 7.17163,8.9064 7.16089,8.90301 7.15067,8.89861 7.141,8.89328 7.13194,8.88708 7.12356,8.88006 3.33729,5.09379 3.34567,5.10081 3.35473,5.10701 3.3644,5.11234 3.37463,5.11674 3.38536,5.12013 3.39654,5.12247 "/>
     <polygon id="_460771216" class="fil1" points="3.29516,4.65119 7.08143,8.43746 7.07785,8.43415 3.29158,4.64788 "/>
     <polygon id="_460770520" class="fil1" points="3.28802,4.64458 7.07428,8.43085 7.07072,8.42756 7.06715,8.42426 7.06359,8.42098 7.06003,8.41769 7.05647,8.41441 7.05291,8.41113 7.04935,8.40786 3.26309,4.62159 3.26664,4.62486 3.2702,4.62814 3.27376,4.63142 3.27732,4.6347 3.28088,4.63799 3.28445,4.64129 "/>
     <polygon id="_460772008" class="fil1" points="3.19047,4.18928 6.97674,7.97555 7.00131,8.0021 7.02277,8.03005 7.04117,8.05919 7.05655,8.08932 7.06896,8.12022 7.07845,8.15167 7.08506,8.18346 7.08882,8.21539 7.0898,8.24724 7.08802,8.27881 7.08354,8.30986 7.07639,8.3402 7.06663,8.36962 3.28036,4.58335 3.29012,4.55393 3.29727,4.52359 3.30175,4.49254 3.30353,4.46097 3.30256,4.42912 3.29879,4.39719 3.29219,4.3654 3.2827,4.33394 3.27028,4.30305 3.2549,4.27292 3.2365,4.24378 3.21504,4.21583 "/>
     <polygon id="_460771936" class="fil1" points="3.52797,5.01633 7.31424,8.8026 7.31301,8.81419 7.31067,8.82537 7.30728,8.8361 7.30288,8.84633 7.29755,8.856 7.29135,8.86505 7.28433,8.87344 7.27655,8.8811 7.26808,8.88799 7.25898,8.89405 7.2493,8.89923 7.2391,8.90347 7.22846,8.90671 7.21741,8.90892 7.20604,8.91002 7.19439,8.90997 3.40813,5.1237 3.41977,5.12375 3.43115,5.12265 3.44219,5.12044 3.45283,5.1172 3.46303,5.11296 3.47271,5.10778 3.48181,5.10172 3.49028,5.09483 3.49806,5.08717 3.50508,5.07878 3.51128,5.06973 3.51661,5.06006 3.52101,5.04983 3.52441,5.0391 3.52674,5.02791 "/>
     <polygon id="_460771432" class="fil1" points="2.59709,4.64589 6.38335,8.43217 6.36951,8.42237 6.35563,8.412 6.3417,8.40109 6.32772,8.38969 6.31367,8.37783 6.29953,8.36554 2.51326,4.57927 2.5274,4.59156 2.54145,4.60342 2.55544,4.61482 2.56936,4.62573 2.58324,4.6361 "/>
     <polygon id="_460771456" class="fil1" points="2.33246,4.41239 6.11873,8.19866 6.10235,8.18428 6.08572,8.16999 6.06881,8.15584 6.05161,8.14187 6.03413,8.12811 6.01632,8.11459 5.9982,8.10137 5.97974,8.08848 5.96093,8.07594 5.94176,8.06381 5.92222,8.05212 5.90229,8.0409 5.88196,8.03019 5.86122,8.02004 2.07495,4.23376 2.09569,4.24392 2.11602,4.25463 2.13595,4.26585 2.15549,4.27754 2.17466,4.28967 2.19347,4.30221 2.21193,4.3151 2.23006,4.32832 2.24786,4.34183 2.26535,4.35559 2.28254,4.36957 2.29945,4.38372 2.31609,4.398 "/>
     <polygon id="_460771480" class="fil1" points="3.57858,4.15114 7.36485,7.93741 7.36411,7.95241 7.36335,7.96743 7.36257,7.98248 7.36179,7.99755 7.361,8.01265 7.36019,8.02777 7.35938,8.04292 7.35855,8.05809 7.35771,8.07328 7.35687,8.0885 7.35601,8.10375 7.35515,8.11902 7.35427,8.13431 7.35339,8.14963 7.3525,8.16497 7.3516,8.18034 7.3507,8.19573 7.34978,8.21114 7.34887,8.22658 7.34794,8.24204 7.34701,8.25753 7.34607,8.27304 7.34513,8.28857 7.34419,8.30413 7.34324,8.31971 7.34228,8.33531 7.34133,8.35094 7.34037,8.36659 7.3394,8.38227 7.33843,8.39796 7.33746,8.41369 7.3365,8.42943 3.55023,4.64316 3.5512,4.62741 3.55217,4.61169 3.55313,4.596 3.5541,4.58032 3.55506,4.56467 3.55602,4.54904 3.55697,4.53344 3.55792,4.51786 3.55887,4.5023 3.55981,4.48677 3.56074,4.47126 3.56167,4.45577 3.5626,4.44031 3.56352,4.42487 3.56443,4.40946 3.56533,4.39407 3.56623,4.3787 3.56712,4.36336 3.568,4.34804 3.56888,4.33274 3.56974,4.31748 3.5706,4.30223 3.57144,4.28701 3.57228,4.27181 3.57311,4.25665 3.57393,4.2415 3.57473,4.22638 3.57552,4.21128 3.57631,4.19621 3.57708,4.18116 3.57784,4.16614 "/>
     <polygon id="_460771504" class="fil1" points="3.54856,2.91523 7.33483,6.7015 7.33968,6.73448 7.34422,6.76767 7.34846,6.80107 7.35239,6.8347 7.35604,6.86854 7.3594,6.9026 7.36248,6.93687 7.36529,6.97135 7.36783,7.00604 7.37012,7.04094 7.37215,7.07605 7.37394,7.11137 7.37549,7.14689 7.37681,7.18261 7.37791,7.21854 7.37878,7.25467 7.37944,7.29099 7.3799,7.32752 7.38016,7.36424 7.38023,7.40116 7.38011,7.43828 7.37982,7.47558 7.37935,7.51308 7.37872,7.55077 7.37794,7.58865 7.377,7.62672 7.37591,7.66497 7.37469,7.70341 7.37334,7.74204 7.37186,7.78084 7.37026,7.81983 7.36856,7.859 3.58229,4.07273 3.584,4.03356 3.58559,3.99457 3.58707,3.95577 3.58842,3.91714 3.58965,3.8787 3.59073,3.84045 3.59167,3.80238 3.59246,3.7645 3.59309,3.72681 3.59356,3.68931 3.59385,3.652 3.59396,3.61489 3.59389,3.57797 3.59363,3.54124 3.59318,3.50472 3.59251,3.46839 3.59164,3.43226 3.59054,3.39634 3.58922,3.36061 3.58768,3.32509 3.58589,3.28978 3.58385,3.25467 3.58157,3.21977 3.57902,3.18507 3.57621,3.15059 3.57313,3.11633 3.56977,3.08227 3.56613,3.04843 3.56219,3.0148 3.55795,2.98139 3.55341,2.9482 "/>
     <polygon id="_460771792" class="fil1" points="3.71344,4.02733 7.49971,7.8136 7.49556,7.81743 7.4914,7.82125 7.48724,7.82509 7.48308,7.82893 7.47891,7.83277 7.47475,7.83661 7.47058,7.84046 7.46641,7.84432 7.46224,7.84817 7.45807,7.85204 7.45389,7.8559 7.4497,7.85976 7.44552,7.86363 7.44133,7.8675 7.43713,7.87137 7.43293,7.87525 7.42872,7.87913 7.42451,7.88301 7.4203,7.88689 7.41607,7.89077 7.41185,7.89465 7.40761,7.89854 7.40337,7.90243 7.39912,7.90631 7.39487,7.9102 7.3906,7.91409 7.38633,7.91797 7.38205,7.92186 7.37776,7.92575 7.37347,7.92964 7.36917,7.93353 7.36485,7.93741 3.57858,4.15114 3.5829,4.14726 3.5872,4.14337 3.5915,4.13948 3.59578,4.13559 3.60006,4.1317 3.60433,4.12781 3.6086,4.12393 3.61285,4.12004 3.6171,4.11615 3.62134,4.11227 3.62558,4.10838 3.62981,4.1045 3.63403,4.10061 3.63824,4.09674 3.64246,4.09285 3.64666,4.08898 3.65086,4.0851 3.65506,4.08123 3.65925,4.07736 3.66344,4.07349 3.66762,4.06963 3.6718,4.06576 3.67597,4.0619 3.68015,4.05805 3.68431,4.05419 3.68848,4.05034 3.69265,4.0465 3.69681,4.04265 3.70097,4.03881 3.70513,4.03498 3.70929,4.03115 "/>
     <polygon id="_460771600" class="fil1" points="4.59157,4.05937 8.37783,7.84565 8.33656,7.87303 8.29607,7.89801 8.25636,7.92066 8.21745,7.94102 8.17935,7.95917 8.14207,7.97513 8.10562,7.98899 8.07002,8.0008 8.03528,8.01059 8.0014,8.01845 7.96841,8.02442 7.9363,8.02856 7.9051,8.03092 7.87481,8.03157 7.84546,8.03055 7.81704,8.02793 7.78958,8.02376 7.76307,8.01809 7.73754,8.01099 7.713,8.00251 7.68946,7.9927 7.66693,7.98163 7.64541,7.96935 7.62493,7.95591 7.6055,7.94137 7.58712,7.9258 7.56981,7.90923 3.78354,4.12296 3.80085,4.13952 3.81923,4.1551 3.83867,4.16964 3.85914,4.18308 3.88066,4.19536 3.90319,4.20643 3.92674,4.21624 3.95128,4.22472 3.97681,4.23182 4.00331,4.23748 4.03078,4.24166 4.05919,4.24428 4.08855,4.2453 4.11883,4.24465 4.15003,4.24229 4.18214,4.23815 4.21513,4.23218 4.24901,4.22432 4.28375,4.21452 4.31935,4.20272 4.3558,4.18886 4.39308,4.17289 4.43118,4.15475 4.47009,4.13439 4.5098,4.11174 4.5503,4.08676 "/>
     <polygon id="_460771624" class="fil1" points="3.55023,4.64316 7.3365,8.42943 7.33578,8.4411 7.33506,8.45279 7.33433,8.46449 7.33361,8.47619 7.33289,8.48791 7.33217,8.49963 7.33145,8.51135 7.33073,8.52308 7.33002,8.53482 7.3293,8.54655 7.32858,8.55829 7.32787,8.57002 7.32716,8.58175 7.32644,8.59348 7.32574,8.6052 7.32503,8.61692 7.32433,8.62863 7.32363,8.64033 7.32293,8.65203 7.32224,8.66371 7.32154,8.67538 7.32086,8.68704 7.32017,8.69868 7.3195,8.71031 7.31882,8.72192 7.31815,8.73351 7.31748,8.74508 7.31682,8.75663 7.31617,8.76816 7.31552,8.77967 7.31487,8.79115 7.31424,8.8026 3.52797,5.01633 3.52861,5.00487 3.52925,4.99339 3.5299,4.98189 3.53056,4.97036 3.53122,4.95881 3.53188,4.94724 3.53255,4.93565 3.53323,4.92404 3.53391,4.91241 3.53459,4.90077 3.53528,4.88911 3.53597,4.87744 3.53666,4.86576 3.53736,4.85406 3.53806,4.84236 3.53876,4.83065 3.53947,4.81893 3.54018,4.80721 3.54089,4.79548 3.5416,4.78375 3.54231,4.77202 3.54303,4.76028 3.54375,4.74855 3.54446,4.73681 3.54519,4.72508 3.54591,4.71336 3.54663,4.70164 3.54735,4.68992 3.54807,4.67822 3.54879,4.66652 3.54951,4.65483 "/>
     <polygon id="_460771888" class="fil1" points="3.63949,2.83228 7.42576,6.61856 7.42019,6.62368 7.41462,6.62882 7.40904,6.63398 7.40345,6.63914 7.39785,6.64431 7.39224,6.6495 7.38661,6.65469 7.38096,6.65989 7.3753,6.66509 7.3696,6.6703 7.36389,6.6755 7.35814,6.68071 7.35236,6.68591 7.34655,6.69111 7.34071,6.69631 7.33483,6.7015 3.54856,2.91523 3.55444,2.91004 3.56028,2.90484 3.56609,2.89964 3.57187,2.89444 3.57762,2.88923 3.58333,2.88402 3.58903,2.87882 3.5947,2.87362 3.60034,2.86842 3.60597,2.86323 3.61159,2.85804 3.61719,2.85287 3.62277,2.8477 3.62835,2.84255 3.63392,2.83741 "/>
     <polygon id="_460772512" class="fil1" points="4.10566,2.8493 7.89193,6.63557 7.87002,6.6501 7.84852,6.66337 7.82744,6.67539 7.80678,6.6862 7.78656,6.69583 7.76677,6.70431 7.74742,6.71167 7.72852,6.71793 7.71007,6.72313 7.69209,6.7273 7.67457,6.73047 7.65753,6.73267 7.64097,6.73393 7.62489,6.73427 7.60931,6.73373 7.59422,6.73233 7.57964,6.73012 7.56557,6.72711 7.55202,6.72334 7.53899,6.71884 7.52649,6.71364 7.51452,6.70776 7.50311,6.70124 7.49223,6.6941 7.48191,6.68639 7.47216,6.67812 7.46297,6.66932 3.6767,2.88305 3.68589,2.89185 3.69565,2.90011 3.70596,2.90783 3.71684,2.91496 3.72826,2.92149 3.74022,2.92737 3.75272,2.93257 3.76575,2.93707 3.7793,2.94084 3.79337,2.94385 3.80795,2.94606 3.82304,2.94746 3.83862,2.948 3.8547,2.94765 3.87126,2.9464 3.88831,2.9442 3.90582,2.94103 3.92381,2.93686 3.94225,2.93166 3.96115,2.92539 3.9805,2.91804 4.00029,2.90956 4.02052,2.89993 4.04117,2.88912 4.06226,2.87709 4.08375,2.86383 "/>
     <polygon id="_460772128" class="fil1" points="5.28,3.51598 9.06627,7.30225 9.03893,7.31564 9.01212,7.32976 8.98585,7.34455 8.96008,7.35997 8.9348,7.37597 8.91,7.39249 8.88566,7.4095 8.86176,7.42693 8.83829,7.44474 8.81523,7.46288 8.79256,7.48131 8.77027,7.49996 8.74833,7.5188 8.72674,7.53777 8.70548,7.55682 8.68452,7.57591 8.66386,7.59498 8.64348,7.61399 8.62335,7.63289 8.60347,7.65162 8.58381,7.67013 8.56437,7.68839 8.54512,7.70633 8.52604,7.72391 8.50713,7.74109 8.48836,7.7578 8.46972,7.774 8.45119,7.78965 8.43275,7.80468 8.41439,7.81906 8.39609,7.83273 8.37783,7.84565 4.59157,4.05937 4.60982,4.04646 4.62812,4.03279 4.64648,4.01841 4.66492,4.00337 4.68345,3.98773 4.70209,3.97153 4.72086,3.95481 4.73978,3.93764 4.75885,3.92006 4.7781,3.90212 4.79754,3.88386 4.8172,3.86535 4.83708,3.84661 4.85721,3.82772 4.87759,3.80871 4.89826,3.78964 4.91921,3.77055 4.94047,3.7515 4.96207,3.73253 4.984,3.71369 5.00629,3.69504 5.02896,3.67661 5.05202,3.65847 5.0755,3.64066 5.09939,3.62322 5.12374,3.60622 5.14854,3.5897 5.17381,3.5737 5.19958,3.55828 5.22585,3.54349 5.25266,3.52937 "/>
    </g>
    <path id="_457196096" class="fil1" d="M2.95831 1.73202c0.342331,0.308098 0.510488,0.696024 0.584728,1.14799 0.0283189,-0.0247323 0.0561142,-0.0498583 0.0843622,-0.0744961 -0.0825315,-0.215634 0.142209,-0.567315 0.843732,-0.244697 -0.156406,0.0736811 -0.262197,0.217575 -0.365472,0.288472 -0.235866,0.161933 -0.402634,0.101787 -0.466173,-0.0170118 -0.0296811,0.0272992 -0.0594567,0.0552756 -0.0909291,0.0829488 0.0534606,0.350512 0.0525079,0.738748 0.0337283,1.1575 0.0361181,-0.0320157 0.0720551,-0.0641299 0.108382,-0.0958189 -0.155461,-0.406185 0.267882,-1.06865 1.58933,-0.460929 -0.294618,0.138791 -0.493894,0.409839 -0.688433,0.543394 -0.444299,0.305031 -0.758437,0.19174 -0.878122,-0.0320472 -0.0443386,0.0407795 -0.0887953,0.0823543 -0.134862,0.123815 -0.00788583,0.159835 -0.0179961,0.323957 -0.0283543,0.492016 -0.00767323,0.124469 -0.0154803,0.251122 -0.0222598,0.373173 -0.00344094,0.0627402 -0.0571024,0.110807 -0.119843,0.107366 -0.0627402,-0.00344488 -0.110811,-0.0571024 -0.107366,-0.119846 0.00638189,-0.114906 0.0129803,-0.223303 0.0195157,-0.329476 -0.0192283,-0.0177047 -0.0382205,-0.0353425 -0.057189,-0.0527874 -0.0907717,0.169728 -0.329028,0.255654 -0.666,0.0243071 -0.147547,-0.101295 -0.298685,-0.306862 -0.522134,-0.41213 1.00224,-0.460917 1.32331,0.0415157 1.20541,0.349587 0.0144528,0.0126063 0.0288228,0.0253031 0.0431772,0.0380315 0.00742913,-0.12052 0.0147008,-0.238909 0.0210709,-0.354976 0.0183543,-0.334402 0.0291654,-0.649472 0.0142835,-0.940331 -0.0561181,-0.0498976 -0.109705,-0.100138 -0.16313,-0.14928 -0.0162717,0.0304252 -0.0359882,0.0588898 -0.0589449,0.0847362 -0.154783,0.174276 -0.45815,0.22863 -0.865449,-0.051 -0.204787,-0.140594 -0.414563,-0.425917 -0.724705,-0.572028l1.46571 -0.129213c0.226673,0.153378 0.284209,0.413634 0.207362,0.614425 0.0449409,0.0391969 0.0893031,0.0790197 0.134087,0.118559 -0.0334803,-0.478319 -0.143677,-0.88765 -0.415421,-1.20514 -0.0405,-0.0473189 -0.0844921,-0.0926535 -0.132453,-0.135815 -0.046752,-0.0420709 -0.0505433,-0.114079 -0.0084685,-0.160831 0.0420748,-0.046748 0.114083,-0.0505394 0.160831,-0.00846457z"/>
   </g>
  </g>
  <path class="fil2" d="M3.41333 -3.93701e-006c1.88513,0 3.41333,1.5282 3.41333,3.41333 0,1.88513 -1.5282,3.41333 -3.41333,3.41333 -1.88513,0 -3.41333,-1.5282 -3.41333,-3.41333 0,-1.88513 1.5282,-3.41333 3.41333,-3.41333z"/>
  <path class="fil3" d="M1.54666 2.6385c0.310142,0.14611 0.519917,0.431433 0.724705,0.572028 1.29925,0.891988 1.54127,-1.61411 -0.724705,-0.572028z"/>
  <path class="fil4" d="M3.42677 3.30583c-0.27572,-0.236031 -0.516512,-0.500528 -0.942941,-0.59098 -0.172791,-0.0366535 -0.210717,-0.0569173 -0.393776,-0.0555512l0.00198819 0c-0.0743622,0.00783858 -0.102882,0.0214291 -0.170594,0.0435906 0.057685,-0.00552362 0.0169567,0.00038189 0.0851024,-0.0143268 0.164106,-0.0354173 0.311661,0.0193031 0.46989,0.057563 0.445142,0.10765 0.653961,0.39078 0.960181,0.647154l-0.00985039 -0.0874488z"/>
  <path class="fil4" d="M2.61632 2.75355c-0.0281339,0.00295669 -0.0567835,0.00705118 -0.0860157,0.012437 -0.14676,0.0270433 -0.182909,0.023437 -0.325441,0.0834843l0.00155512 -0.000637795c-0.0555512,0.0300787 -0.0734488,0.049878 -0.119193,0.0890039 0.0432756,-0.0228976 0.0133701,-0.00516142 0.0618504,-0.0386063 0.11676,-0.0805354 0.24963,-0.0853386 0.385535,-0.106433 0.0298583,-0.00462992 0.0589331,-0.0079685 0.0873228,-0.010126 -0.00552362,-0.00862598 -0.00751181,-0.0190787 -0.00561417,-0.029122z"/>
  <path class="fil4" d="M2.93033 2.89737c-0.00158661,0.000287402 -0.00316535,0.000543307 -0.00475591,0.000838583 -0.173713,0.0320118 -0.2165,0.0277402 -0.385201,0.098815l0.00183858 -0.000755906c-0.0657559,0.0356024 -0.086937,0.0590394 -0.141079,0.10535 0.0512165,-0.0271024 0.0158189,-0.00611024 0.0732047,-0.0456969 0.138201,-0.0953228 0.295472,-0.101008 0.456335,-0.125976l0.00346457 -0.000511811c-0.00495276,-0.00987795 -0.00631102,-0.0212913 -0.00380709,-0.032063z"/>
  <path class="fil4" d="M2.43535 2.7323c-0.0141102,-0.0125787 -0.0275984,-0.0257087 -0.0403858,-0.0394764 -0.064185,-0.0691024 -0.088315,-0.0830354 -0.123291,-0.160311l0.000393701 0.000838583c-0.00822441,-0.032126 -0.00268504,-0.0455197 0.00216535,-0.0762953 0.00683858,0.0248661 0.00366142,0.0071063 0.00501575,0.037311 0.00326772,0.0727323 0.0773189,0.129374 0.139961,0.192181 0.0137598,0.0137953 0.0281142,0.026878 0.0430197,0.0393228 -0.0102244,0.000299213 -0.0198583,0.00261811 -0.026878,0.00642913z"/>
  <path class="fil4" d="M2.83254 2.87101c-0.000830709,-0.000893701 -0.00167717,-0.00176772 -0.00250394,-0.00266535 -0.0903504,-0.0979055 -0.121752,-0.116858 -0.179413,-0.228933l0.000645669 0.0012126c-0.0165315,-0.0470394 -0.0128504,-0.0672756 -0.0136772,-0.113232 0.0133504,0.036374 0.00582283,0.0102756 0.0138425,0.0549449 0.0193268,0.107579 0.118654,0.186319 0.205839,0.274996l0.00189764 0.00189764c-0.0106929,0.00179528 -0.0201772,0.00598819 -0.0266299,0.0117795z"/>
  <path class="fil3" d="M5.28 3.51598c-0.294618,0.138795 -0.493894,0.409839 -0.688429,0.543394 -1.23422,0.847346 -1.46413,-1.53332 0.688429,-0.543394z"/>
  <path class="fil4" d="M3.49399 4.14991c0.261917,-0.224217 0.490657,-0.475472 0.895744,-0.561402 0.164142,-0.0348189 0.200169,-0.0540709 0.374063,-0.0527717l-0.00188583 3.93701e-006c0.0706378,0.00744488 0.0977323,0.0203543 0.162055,0.0414055 -0.0547992,-0.00524803 -0.0161102,0.000362205 -0.0808425,-0.0136102 -0.155894,-0.0336417 -0.296063,0.0183386 -0.44637,0.054685 -0.422862,0.10226 -0.621228,0.37122 -0.912122,0.61476l0.00935827 -0.0830709z"/>
  <path class="fil4" d="M4.26388 3.62527c0.0267244,0.00281102 0.053937,0.00670079 0.0817087,0.011815 0.139413,0.0256929 0.173756,0.0222638 0.30915,0.0793031l-0.00147638 -0.000602362c0.0527717,0.0285748 0.0697717,0.0473819 0.113224,0.0845512 -0.0411063,-0.0217559 -0.0126969,-0.00490551 -0.058752,-0.0366772 -0.110913,-0.0765039 -0.237134,-0.0810669 -0.36624,-0.101106 -0.0283622,-0.00439764 -0.0559843,-0.00756693 -0.0829528,-0.00961811 0.00524803,-0.00819291 0.0071378,-0.018122 0.00533858,-0.0276654z"/>
  <path class="fil4" d="M3.96558 3.76189c0.00150787,0.000271654 0.00300787,0.000515748 0.00451969,0.000795276 0.165016,0.0304094 0.205661,0.0263504 0.365921,0.0938661l-0.00174803 -0.000716535c0.0624646,0.0338228 0.0825866,0.0560866 0.13402,0.100079 -0.0486575,-0.025748 -0.0150315,-0.00580709 -0.0695433,-0.0434134 -0.131283,-0.0905472 -0.280681,-0.0959488 -0.433492,-0.119669l-0.00329134 -0.000484252c0.00470079,-0.00938189 0.00599606,-0.0202244 0.00361417,-0.0304567z"/>
  <path class="fil4" d="M4.43579 3.60508c0.0134016,-0.0119488 0.0262126,-0.0244213 0.0383622,-0.0375 0.0609724,-0.0656417 0.0838937,-0.078878 0.117122,-0.152283l-0.000377953 0.000795276c0.00781496,-0.0305197 0.00255512,-0.0432441 -0.00205512,-0.0724764 -0.00649606,0.023622 -0.00347638,0.00675197 -0.00476378,0.0354409 -0.0031063,0.0690945 -0.0734488,0.122902 -0.132953,0.182563 -0.0130748,0.0131063 -0.0267087,0.0255315 -0.0408701,0.0373543 0.0097126,0.000283465 0.0188661,0.00248819 0.0255354,0.0061063z"/>
  <path class="fil4" d="M4.05848 3.73685c0.000791339,-0.000850394 0.00159449,-0.0016811 0.00237795,-0.0025315 0.0858307,-0.0930079 0.115657,-0.111008 0.170433,-0.217472l-0.000610236 0.00114961c0.0157008,-0.044685 0.0122047,-0.0639094 0.0129921,-0.107567 -0.0126811,0.0345551 -0.00553543,0.00976378 -0.0131535,0.0521969 -0.0183583,0.102193 -0.112713,0.176992 -0.195531,0.261232l-0.00180315 0.00180315c0.0101575,0.00170472 0.0191654,0.00568504 0.0252953,0.011189z"/>
  <path class="fil3" d="M2.07495 4.23376c0.223449,0.105268 0.374587,0.310839 0.522134,0.412134 0.936079,0.642657 1.11045,-1.16293 -0.522134,-0.412134z"/>
  <path class="fil4" d="M3.42952 4.71456c-0.19865,-0.170055 -0.372134,-0.360618 -0.679366,-0.425791 -0.124492,-0.0264055 -0.151819,-0.0410079 -0.283705,-0.0400197l0.00142913 0c-0.0535748,0.00564567 -0.074122,0.015437 -0.122909,0.0314055 0.041563,-0.00398031 0.0122205,0.000275591 0.061315,-0.0103228 0.118236,-0.0255157 0.224547,0.0139055 0.338547,0.0414724 0.320713,0.0775591 0.471161,0.281547 0.691787,0.46626l-0.00709843 -0.0630039z"/>
  <path class="fil4" d="M2.84561 4.31665c-0.0202717,0.00212992 -0.0409094,0.00508268 -0.0619724,0.00896063 -0.105736,0.0194843 -0.131783,0.0168858 -0.234472,0.0601496l0.00112205 -0.00046063c-0.0400276,0.0216732 -0.0529213,0.035937 -0.085878,0.064126 0.0311772,-0.0164961 0.00963386,-0.00372047 0.044563,-0.027815 0.084122,-0.0580236 0.17985,-0.0614843 0.277772,-0.0766811 0.0215118,-0.00333858 0.0424567,-0.00574016 0.0629134,-0.00729921 -0.00398031,-0.0062126 -0.00541339,-0.0137441 -0.00404724,-0.0209803z"/>
  <path class="fil4" d="M3.07185 4.42027c-0.00114567,0.000204724 -0.00227953,0.000393701 -0.00342913,0.000606299 -0.125154,0.0230591 -0.15598,0.0199843 -0.277528,0.071189l0.00132283 -0.000543307c-0.047374,0.0256535 -0.0626339,0.0425394 -0.101642,0.0759055 0.0369016,-0.0195276 0.0113976,-0.00440551 0.0527441,-0.0329252 0.0995669,-0.0686772 0.212878,-0.0727756 0.328776,-0.0907638l0.00249606 -0.000366142c-0.00356693,-0.00711811 -0.00454724,-0.0153425 -0.00274016,-0.0231024z"/>
  <path class="fil4" d="M2.71523 4.30134c-0.0101654,-0.00906299 -0.0198858,-0.0185236 -0.0290945,-0.0284409 -0.046248,-0.0497874 -0.0636299,-0.0598228 -0.0888307,-0.1155l0.000283465 0.000602362c-0.0059252,-0.0231457 -0.00193701,-0.0327953 0.00155906,-0.0549685 0.00492913,0.0179173 0.0026378,0.00512205 0.00361417,0.0268819 0.00235433,0.0524016 0.0557087,0.0932126 0.100839,0.138461 0.00991339,0.00994094 0.0202559,0.0193661 0.0309921,0.0283307 -0.00736614,0.000216535 -0.0143031,0.00188976 -0.0193622,0.00463386z"/>
  <path class="fil4" d="M3.0014 4.40128c-0.000602362,-0.000645669 -0.00120866,-0.00127559 -0.00180315,-0.00192126 -0.0650984,-0.0705394 -0.0877205,-0.0841929 -0.129264,-0.164941l0.000464567 0.000874016c-0.0119094,-0.0338898 -0.00925984,-0.0484724 -0.00985433,-0.0815827 0.00961811,0.0262087 0.00419685,0.00740551 0.00997244,0.0395866 0.0139252,0.0775079 0.0854882,0.13424 0.148303,0.19813l0.00136614 0.00136614c-0.00770472,0.00129528 -0.0145394,0.00431102 -0.019185,0.00848819z"/>
  <path class="fil3" d="M4.47113 2.56082c-0.156406,0.073685 -0.262197,0.217575 -0.365472,0.288476 -0.655213,0.449831 -0.777264,-0.814 0.365472,-0.288476z"/>
  <path class="fil4" d="M3.52298 2.89736c0.139047,-0.119031 0.26048,-0.252413 0.475528,-0.298031 0.0871378,-0.0184843 0.106268,-0.0287047 0.198583,-0.0280157l-0.00100394 3.93701e-006c0.0375,0.00394882 0.0518858,0.0108031 0.0860315,0.0219803 -0.0290906,-0.0027874 -0.00855118,0.000192913 -0.0429173,-0.00722441 -0.0827598,-0.0178622 -0.157169,0.00973228 -0.236965,0.0290276 -0.224488,0.0542874 -0.329795,0.197071 -0.48422,0.326362l0.00496457 -0.0441024z"/>
  <path class="fil4" d="M3.9317 2.61884c0.014189,0.00149213 0.0286339,0.00355512 0.043378,0.00627165 0.0740118,0.0136378 0.0922402,0.0118189 0.164118,0.0420984l-0.000783465 -0.000318898c0.0280157,0.0151693 0.0370433,0.0251535 0.0601102,0.0448858 -0.0218228,-0.0115472 -0.00674016,-0.0026063 -0.0311929,-0.0194724 -0.058878,-0.0406102 -0.125886,-0.0430354 -0.194425,-0.0536732 -0.0150551,-0.00233465 -0.0297205,-0.00401575 -0.0440354,-0.0051063 0.00278346,-0.00435039 0.0037874,-0.00962205 0.00283071,-0.014685z"/>
  <path class="fil4" d="M3.77334 2.69137c0.00080315,0.000141732 0.00159843,0.000271654 0.00240157,0.00042126 0.0876024,0.0161417 0.109181,0.0139882 0.194256,0.0498307l-0.000925197 -0.00038189c0.0331575,0.0179567 0.0438386,0.0297756 0.0711457,0.0531299 -0.0258307,-0.0136693 -0.00798031,-0.00308268 -0.0369173,-0.0230472 -0.0696969,-0.0480669 -0.149008,-0.050937 -0.230134,-0.0635276l-0.00174409 -0.000255906c0.00249606,-0.00498425 0.0031811,-0.0107402 0.00191732,-0.0161693z"/>
  <path class="fil4" d="M4.02296 2.60812c0.00711811,-0.00634252 0.0139173,-0.0129646 0.0203661,-0.0199055 0.0323701,-0.0348504 0.0445394,-0.041874 0.0621772,-0.0808425l-0.000200787 0.00042126c0.00414961,-0.0162047 0.00135827,-0.0229567 -0.00109055,-0.0384764 -0.00344882,0.0125394 -0.00184646,0.00358268 -0.00252756,0.018815 -0.00164961,0.0366811 -0.0389921,0.0652441 -0.0705827,0.0969173 -0.00694094,0.00695669 -0.0141772,0.0135551 -0.0216969,0.0198307 0.00515748,0.000149606 0.0100157,0.0013189 0.0135551,0.00324016z"/>
  <path class="fil4" d="M3.82266 2.67808c0.000417323,-0.000452756 0.000846457,-0.000893701 0.00125984,-0.00134646 0.0455669,-0.049374 0.0614016,-0.0589291 0.0904803,-0.115449l-0.000326772 0.000610236c0.00833858,-0.0237205 0.00648031,-0.0339291 0.00689764,-0.0571024 -0.00673228,0.0183425 -0.00293701,0.0051811 -0.00698031,0.0277087 -0.00974409,0.054252 -0.0598346,0.0939606 -0.103803,0.138681l-0.000956693 0.000956693c0.0053937,0.000905512 0.0101732,0.00301969 0.0134291,0.00594094z"/>
  <path class="fil2" d="M2.88955 1.79068c0.760335,0.684303 0.608268,1.82481 0.532236,3.19342"/>
  <path class="fil5" d="M2.95831 1.73202c-0.046748,-0.0420748 -0.118756,-0.0382835 -0.160831,0.00846457 -0.0420748,0.046752 -0.0382835,0.11876 0.0084685,0.160831 0.64924,0.584319 0.589323,1.55633 0.517071,2.72848 -0.00742126,0.120461 -0.0149843,0.243024 -0.0222598,0.374055 -0.00344488,0.0627441 0.044626,0.116402 0.107366,0.119846 0.0627402,0.00344094 0.116402,-0.044626 0.119843,-0.107366 0.00677953,-0.122051 0.0145866,-0.248705 0.0222598,-0.373173 0.0759331,-1.23186 0.138906,-2.25339 -0.591917,-2.91113z"/>
 </g>
</svg>
